<svg id="image" xmlns="http://www.w3.org/2000/svg"
     width="3.200000047683716in" height="1.7333334684371948in"
     viewBox="0 0 3.200000047683716 1.7333334684371948">
  <g>
    <g>
      <g transform="translate(0.2, 0.2)">
        <!--rectangle 0.2 0.2-->
        <g>
          <g transform="translate(0.022222217917442333, 0.1555555544793606)">
            <!--rectangle 0.2 0.2-->
            <g fill="none" stroke="#7F7F7F" opacity="1.0" stroke-width="1">
              <g transform="scale(0.044444444444444446)">
                <!-- Mark -->
                <g transform="translate(0, 0)">
                  <!-- M -->
                  <path d="M 4,22 L 4,1 L 12,22 L 20,1 L 20,22"/>
                </g>
                <g transform="translate(19, 0)">
                  <!-- a -->
                  <path d="M 15,8 L 15,22"/>
                  <path d="M 15,11 L 13,9 L 11,8 L 8,8 L 6,9 L 4,11 L
                           3,14 L 3,16 L 4,19 L 6,21 L 8,22 L 11,22 L
                           13,21 L 15,19"/>
                </g>
                <g transform="translate(33, 0)">
                  <!-- r -->
                  <path d="M 4,8 L 4,22"/>
                  <path d="M 4,14 L 5,11 L 7,9 L 9,8 L 12,8"/>
                </g>
                <g transform="translate(43, 0)">
                  <!-- k -->
                  <path d="M 4,1 L 4,22"/>
                  <path d="M 14,8 L 4,18"/>
                  <path d="M 8,14 L 15,22"/>
                </g>
              </g>
              <!-- x: 0.17777778208255768  y: 0.04444444552063942  width: 2.4000000953674316  height: 0.9333333969116211-->
            </g>
          </g>
          <rect x="0" y="0" width="2.8000000953674316" height="1.333333396911621" rx="0.2" ry="0.2" fill="none" stroke="#7F7F7F" opacity="1.0" stroke-width="0.01"/>
          <!-- x: 0  y: 0  width: 2.8000001907348633  height: 1.3333333730697632-->
        </g>
      </g>
      <rect x="0" y="0" width="3.200000190734863" height="1.733333373069763" rx="0.2" ry="0.2" fill="none" stroke="#7F7F7F" opacity="1.0" stroke-width="0.01"/>
    </g>
    <rect x="0" y="0" width="1" height="1" fill="none" stroke="#0068FF" stroke-width=".01" opacity="1.0"/>
  </g>
</svg>
