<svg xmlns="http://www.w3.org/2000/svg" width="1200" height="630" viewBox="0 0 1200 630" fill="none">
  <rect width="1200" height="630" fill="#1f2937"/>
  <rect x="50" y="50" width="1100" height="530" fill="#374151" rx="20"/>
  
  <!-- Logo/Icon -->
  <g transform="translate(100, 150)">
    <path d="M50.4 78.5a75.1 75.1 0 0 0-28.5 6.9l24.2-65.7c.7-2 1.9-3.2 3.4-3.2h29c1.5 0 2.7 1.2 3.4 3.2l24.2 65.7s-11.6-7-28.5-7L67 45.5c-.4-1.7-1.6-2.8-2.9-2.8-1.3 0-2.5 1.1-2.9 2.7L50.4 78.5Zm-1.1 28.2Zm-4.2-20.2c-2 6.6-.6 15.8 4.2 20.2a17.5 17.5 0 0 1 .2-.7 5.5 5.5 0 0 1 5.7-4.5c2.8.1 4.3 1.5 4.7 4.7.2 1.1.2 2.3.2 3.5v.4c0 2.7.7 5.2 2.2 7.4a13 13 0 0 0 5.7 4.9v-.3l-.2-.3c-1.8-5.6-.5-9.5 4.4-12.8l1.5-1a73 73 0 0 0 3.2-2.2 16 16 0 0 0 6.8-11.4c.3-2 .1-4-.6-6l-.8.6-1.6 1a37 37 0 0 1-22.4 2.7c-5-.7-9.7-2-13.2-6.2Z" fill="#10b981" transform="scale(2)"/>
  </g>
  
  <!-- Title -->
  <text x="350" y="250" font-family="Arial, sans-serif" font-size="64" font-weight="bold" fill="#f9fafb">Cut. Glue. Build.</text>
  <text x="350" y="320" font-family="Arial, sans-serif" font-size="48" font-weight="normal" fill="#d1d5db">AI-powered tools for makers</text>
  
  <!-- Features -->
  <text x="350" y="400" font-family="Arial, sans-serif" font-size="32" fill="#10b981">✓ SVG Generation</text>
  <text x="350" y="450" font-family="Arial, sans-serif" font-size="32" fill="#10b981">✓ Design Editor</text>
  <text x="350" y="500" font-family="Arial, sans-serif" font-size="32" fill="#10b981">✓ Premium Templates</text>
  
  <!-- URL -->
  <text x="1050" y="580" font-family="Arial, sans-serif" font-size="24" fill="#9ca3af" text-anchor="end">cutgluebuild.com</text>
</svg>